<svg id="coffee" enable-background="new 0 0 300 300" height="512" viewBox="0 0 300 300" width="512" xmlns="http://www.w3.org/2000/svg"><g><circle cx="161.375" cy="112" fill="#efefd2" r="86"/><g fill="#4c241d"><path d="m201.375 190c-7.719 0-14-6.281-14-14s6.281-14 14-14 14 6.281 14 14-6.282 14-14 14zm0-20c-3.309 0-6 2.691-6 6s2.691 6 6 6 6-2.691 6-6-2.692-6-6-6z"/><circle cx="147.375" cy="82" r="4"/><circle cx="175.375" cy="46" r="4"/><path d="m231.375 66c-1.023 0-2.047-.391-2.828-1.172l-12-12c-1.562-1.562-1.562-4.094 0-5.656s4.094-1.562 5.656 0l12 12c1.562 1.562 1.562 4.094 0 5.656-.782.781-1.805 1.172-2.828 1.172z"/><path d="m219.375 66c-1.023 0-2.047-.391-2.828-1.172-1.562-1.562-1.562-4.094 0-5.656l12-12c1.562-1.562 4.094-1.562 5.656 0s1.562 4.094 0 5.656l-12 12c-.782.781-1.805 1.172-2.828 1.172z"/></g><g><path d="m131.375 270h-72l-24-32h120z" fill="#6b4f5b"/><path d="m131.375 274h-72c-1.258 0-2.445-.592-3.199-1.6l-24-32c-.91-1.213-1.055-2.834-.379-4.189.68-1.355 2.062-2.211 3.578-2.211h120c1.516 0 2.898.855 3.578 2.211.676 1.355.531 2.977-.379 4.189l-24 32c-.754 1.008-1.942 1.6-3.199 1.6zm-70-8h68l18-24h-104z" fill="#4c241d"/></g><g><path d="m63.375 126-32-32 100.055 10.72c5.574.597 8.648 6.774 5.764 11.581l-5.819 9.699z" fill="#bf7e68"/><path d="m131.375 130h-68c-1.062 0-2.078-.422-2.828-1.172l-32-32c-1.199-1.199-1.512-3.023-.781-4.555.734-1.527 2.305-2.455 4.035-2.25l100.055 10.721c3.984.426 7.426 2.822 9.211 6.406 1.781 3.584 1.617 7.773-.441 11.207l-5.82 9.701c-.724 1.206-2.025 1.942-3.431 1.942zm-66.344-8h64.078l4.656-7.758c.934-1.557.406-2.984.137-3.527-.27-.541-1.09-1.822-2.898-2.018l-88.789-9.514z" fill="#4c241d"/></g><g><path d="m135.375 126h-24-48l-28 112h120l-21.561-77.67c-2.213-7.973 2.333-16.256 10.247-18.671l51.314-15.659v-16z" fill="#fc8c29"/><path d="m155.375 242h-120c-1.23 0-2.395-.568-3.152-1.539-.758-.971-1.027-2.236-.727-3.432l28-112c.445-1.779 2.043-3.029 3.879-3.029h71.477l59.492-15.865c1.207-.312 2.484-.062 3.469.693.984.758 1.562 1.93 1.562 3.172v16c0 1.76-1.148 3.312-2.832 3.826l-51.312 15.658c-5.887 1.797-9.207 7.848-7.559 13.775l21.559 77.67c.332 1.205.086 2.496-.672 3.49-.755.997-1.934 1.581-3.184 1.581zm-114.875-8h109.613l-20.152-72.6c-2.816-10.141 2.863-20.494 12.934-23.568l48.48-14.793v-7.832l-54.969 14.658c-.336.09-.684.135-1.031.135h-68.875z" fill="#4c241d"/></g><g><path d="m261.411 113.386-62.364 15.784c-5.117 1.295-10.314-1.803-11.609-6.92l-1.214-4.799c-1.295-5.117 1.803-10.314 6.92-11.609l62.364-15.784c5.117-1.295 10.314 1.803 11.609 6.92l1.215 4.799c1.293 5.116-1.805 10.314-6.921 11.609z" fill="#6b4f5b"/><path d="m196.707 133.463c-6.059 0-11.594-4.096-13.148-10.23l-1.215-4.799c-1.832-7.25 2.574-14.637 9.82-16.469l62.363-15.783c7.262-1.834 14.633 2.572 16.469 9.814l1.215 4.799c1.832 7.248-2.574 14.635-9.82 16.467l-62.363 15.785c-1.11.281-2.228.416-3.321.416zm61.144-39.697c-.449 0-.906.055-1.363.17l-62.363 15.783c-2.969.752-4.773 3.781-4.023 6.752l1.215 4.797c.754 2.973 3.773 4.779 6.75 4.025l62.363-15.785c2.969-.752 4.773-3.779 4.023-6.75l-1.215-4.797c-.637-2.516-2.906-4.195-5.387-4.195z" fill="#4c241d"/></g><path d="m63.378 174c-.32 0-.648-.037-.973-.119-2.145-.535-3.449-2.707-2.91-4.852l8-32c.535-2.143 2.703-3.453 4.848-2.91 2.145.535 3.449 2.707 2.91 4.852l-8 32c-.453 1.816-2.082 3.029-3.875 3.029z" fill="#fff"/><g><path d="m107.375 270h68" fill="#fc8c29"/><path d="m175.375 274h-68c-2.211 0-4-1.791-4-4s1.789-4 4-4h68c2.211 0 4 1.791 4 4s-1.789 4-4 4z" fill="#4c241d"/></g><path d="m107.375 90c-2.211 0-4-1.791-4-4s1.789-4 4-4c2.207 0 4-1.795 4-4s-1.793-4-4-4c-2.211 0-4-1.791-4-4s1.789-4 4-4c2.207 0 4-1.795 4-4s-1.793-4-4-4h-20c-2.211 0-4-1.791-4-4s1.789-4 4-4c2.207 0 4-1.795 4-4 0-.674-.191-1.342-.566-1.988-1.109-1.91-.465-4.357 1.445-5.469 1.906-1.115 4.355-.465 5.469 1.445 1.082 1.857 1.652 3.936 1.652 6.012 0 1.402-.242 2.748-.684 4h8.684c6.617 0 12 5.383 12 12 0 3.07-1.16 5.875-3.062 8 1.902 2.125 3.062 4.93 3.062 8 0 6.617-5.383 12-12 12z" fill="#bf7e68"/><path d="m87.375 90c-6.617 0-12-5.383-12-12 0-1.402.242-2.748.684-4h-12.684c-6.617 0-12-5.383-12-12 0-1.402.242-2.748.684-4h-8.684c-6.617 0-12-5.383-12-12s5.383-12 12-12h29.109c2.211 0 4 1.791 4 4s-1.789 4-4 4h-29.109c-2.207 0-4 1.795-4 4s1.793 4 4 4h20c2.211 0 4 1.791 4 4s-1.789 4-4 4c-2.207 0-4 1.795-4 4s1.793 4 4 4h24c2.211 0 4 1.791 4 4s-1.789 4-4 4c-2.207 0-4 1.795-4 4s1.793 4 4 4c2.211 0 4 1.791 4 4s-1.789 4-4 4z" fill="#bf7e68"/></g></svg>