<?xml version="1.0" encoding="iso-8859-1"?>
<!-- Generator: Adobe Illustrator 19.0.0, SVG Export Plug-In . SVG Version: 6.00 Build 0)  -->
<svg version="1.1" id="Capa_1" xmlns="http://www.w3.org/2000/svg" xmlns:xlink="http://www.w3.org/1999/xlink" x="0px" y="0px"
	 viewBox="0 0 512 512" style="enable-background:new 0 0 512 512;" xml:space="preserve">
<path style="fill:#956B64;" d="M504,232h-64c-4.418,0-8,3.582-8,8v48c0,4.418,3.582,8,8,8h32c22.056,0,40-17.944,40-40v-16
	C512,235.582,508.418,232,504,232z"/>
<path style="fill:#885951;" d="M504,232h-8v8c0,22.056-17.944,40-40,40h-24v8c0,4.418,3.582,8,8,8h32c22.056,0,40-17.944,40-40v-16
	C512,235.582,508.418,232,504,232z"/>
<path style="fill:#956B64;" d="M72,232H8c-4.418,0-8,3.582-8,8v16c0,22.056,17.944,40,40,40h32c4.418,0,8-3.582,8-8v-48
	C80,235.582,76.418,232,72,232z"/>
<path style="fill:#885951;" d="M56,280c-22.056,0-40-17.944-40-40v-8H8c-4.418,0-8,3.582-8,8v16c0,22.056,17.944,40,40,40h32
	c4.418,0,8-3.582,8-8v-8H56z"/>
<path style="fill:#F56C6C;" d="M440,192H72c-4.418,0-8,3.582-8,8v192c0,39.701,32.299,72,72,72h240c39.701,0,72-32.299,72-72V200
	C448,195.582,444.418,192,440,192z"/>
<path style="fill:#DB4D4D;" d="M88,392V200c0-4.418,3.582-8,8-8H72c-4.418,0-8,3.582-8,8v192c0,39.701,32.299,72,72,72h24
	C120.299,464,88,431.701,88,392z"/>
<path style="fill:#F56C6C;" d="M376,96H136c-39.701,0-72,32.299-72,72c0,4.418,3.582,8,8,8h368c4.418,0,8-3.582,8-8
	C448,128.299,415.701,96,376,96z"/>
<path style="fill:#DB4D4D;" d="M88,168c0-39.701,32.299-72,72-72h-24c-39.701,0-72,32.299-72,72c0,4.418,3.582,8,8,8h24
	C91.582,176,88,172.418,88,168z"/>
<path style="fill:#F2EDEC;" d="M456,160H56c-4.418,0-8,3.582-8,8v32c0,4.418,3.582,8,8,8h400c4.418,0,8-3.582,8-8v-32
	C464,163.582,460.418,160,456,160z"/>
<path style="fill:#E4DAD8;" d="M72,200v-32c0-4.418,3.582-8,8-8H56c-4.418,0-8,3.582-8,8v32c0,4.418,3.582,8,8,8h24
	C75.582,208,72,204.418,72,200z"/>
<path style="fill:#FAD000;" d="M256,48c-13.234,0-24,10.766-24,24s10.766,24,24,24c13.234,0,24-10.766,24-24S269.234,48,256,48z"/>
<path style="fill:#7A463D;" d="M256,224c-61.757,0-112,50.243-112,112s50.243,112,112,112s112-50.243,112-112S317.757,224,256,224z"
	/>
<path style="fill:#E4DAD8;" d="M256,240c-52.934,0-96,43.066-96,96s43.066,96,96,96s96-43.066,96-96S308.934,240,256,240z"/>
<path style="fill:#F2EDEC;" d="M256,256c-44.112,0-80,35.888-80,80s35.888,80,80,80s80-35.888,80-80S300.112,256,256,256z"/>
<g>
	<path style="fill:#7A463D;" d="M256,264c-4.418,0-8-3.582-8-8v-24c0-4.418,3.582-8,8-8s8,3.582,8,8v24
		C264,260.418,260.418,264,256,264z"/>
	<path style="fill:#7A463D;" d="M216.007,274.719c-2.765,0-5.454-1.435-6.936-4.001l-12-20.784
		c-2.209-3.826-0.898-8.719,2.928-10.928c3.826-2.208,8.719-0.899,10.928,2.928l12,20.784
		C225.944,267.941,222.074,274.719,216.007,274.719z"/>
	<path style="fill:#7A463D;" d="M186.71,304.001c-1.357,0-2.733-0.346-3.993-1.073l-20.784-12
		c-3.826-2.209-5.137-7.102-2.928-10.928c2.209-3.827,7.102-5.139,10.928-2.928l20.784,12c3.136,1.811,4.708,5.715,3.675,9.19
		C193.401,301.598,190.193,304.001,186.71,304.001z"/>
	<path style="fill:#7A463D;" d="M176,344h-24c-4.418,0-8-3.582-8-8s3.582-8,8-8h24c4.418,0,8,3.582,8,8S180.418,344,176,344z"/>
	<path style="fill:#7A463D;" d="M165.941,396.001c-2.765,0-5.454-1.435-6.936-4.001c-2.209-3.826-0.898-8.719,2.928-10.928
		l20.784-12c3.827-2.207,8.719-0.898,10.928,2.928c2.209,3.826,0.898,8.719-2.928,10.928l-20.784,12
		C168.674,395.655,167.298,396.001,165.941,396.001z"/>
	<path style="fill:#7A463D;" d="M203.993,434.068c-1.357,0-2.733-0.346-3.993-1.073c-3.826-2.209-5.137-7.102-2.928-10.928
		l12-20.784c2.209-3.826,7.103-5.139,10.928-2.928c3.826,2.209,5.137,7.102,2.928,10.928l-12,20.784
		C209.446,432.633,206.757,434.068,203.993,434.068z"/>
	<path style="fill:#7A463D;" d="M256,448c-4.418,0-8-3.582-8-8v-24c0-4.418,3.582-8,8-8s8,3.582,8,8v24
		C264,444.418,260.418,448,256,448z"/>
	<path style="fill:#7A463D;" d="M308.007,434.068c-2.765,0-5.454-1.435-6.936-4.001l-12-20.784
		c-2.209-3.826-0.898-8.719,2.928-10.928c3.827-2.208,8.719-0.899,10.928,2.928l12,20.784c2.209,3.826,0.898,8.719-2.928,10.928
		C310.74,433.722,309.365,434.068,308.007,434.068z"/>
	<path style="fill:#7A463D;" d="M346.059,396.001c-1.357,0-2.733-0.346-3.993-1.073l-20.784-12
		c-3.826-2.209-5.137-7.102-2.928-10.928c2.209-3.827,7.101-5.138,10.928-2.928l20.784,12c3.826,2.209,5.137,7.102,2.928,10.928
		C351.513,394.566,348.824,396.001,346.059,396.001z"/>
	<path style="fill:#7A463D;" d="M360,344h-24c-4.418,0-8-3.582-8-8s3.582-8,8-8h24c4.418,0,8,3.582,8,8S364.418,344,360,344z"/>
	<path style="fill:#7A463D;" d="M325.29,304.001c-3.716,0-7.029-2.659-7.824-6.29c-0.737-3.364,0.836-6.918,3.817-8.639l20.784-12
		c3.826-2.208,8.719-0.899,10.928,2.928c2.209,3.826,0.898,8.719-2.928,10.928l-20.784,12
		C328.022,303.655,326.647,304.001,325.29,304.001z"/>
	<path style="fill:#7A463D;" d="M295.993,274.719c-6.066,0-9.937-6.778-6.921-12.001l12-20.784
		c2.208-3.827,7.102-5.138,10.928-2.928c3.826,2.209,5.137,7.102,2.928,10.928l-12,20.784
		C301.446,273.284,298.757,274.719,295.993,274.719z"/>
</g>
<path style="fill:#FAD000;" d="M288,344h-32c-4.418,0-8-3.582-8-8v-48c0-4.418,3.582-8,8-8s8,3.582,8,8v40h24c4.418,0,8,3.582,8,8
	S292.418,344,288,344z"/>
<g>
</g>
<g>
</g>
<g>
</g>
<g>
</g>
<g>
</g>
<g>
</g>
<g>
</g>
<g>
</g>
<g>
</g>
<g>
</g>
<g>
</g>
<g>
</g>
<g>
</g>
<g>
</g>
<g>
</g>
</svg>
