<svg id="color" enable-background="new 0 0 24 24" height="512" viewBox="0 0 24 24" width="512" xmlns="http://www.w3.org/2000/svg"><path d="m21 1h-18c-1.654 0-3 1.346-3 3v16c0 1.654 1.346 3 3 3h18c1.654 0 3-1.346 3-3v-16c0-1.654-1.346-3-3-3z" fill="#607d8b"/><path d="m21 21h-18c-.551 0-1-.448-1-1v-14h20v14c0 .552-.449 1-1 1z" fill="#fff"/><path d="m18.431 20h-12.862c-.865 0-1.569-.704-1.569-1.569v-8.862c0-.865.704-1.569 1.569-1.569h12.862c.865 0 1.569.704 1.569 1.569v8.862c0 .865-.704 1.569-1.569 1.569z" fill="#90caf9"/><path d="m17.6 12.35c-.65-.5-1.56-.47-2.21.09l-3.25 2.91c-.09.08-.22.09-.32 0l-2.19-1.81c-.65-.55-1.6-.55-2.26 0l-3.37 2.89v2c0 .87.7 1.57 1.57 1.57h12.86c.87 0 1.57-.7 1.57-1.57v-4.31z" fill="#8bc34a"/><path d="m12 1h-9c-1.654 0-3 1.346-3 3v16c0 1.654 1.346 3 3 3h9v-2h-9c-.551 0-1-.448-1-1v-14h10z" fill="#546d79"/><path d="m12 6h-10v14c0 .552.449 1 1 1h9v-1h-6.431c-.048 0-.095-.002-.142-.006-.756-.068-1.354-.667-1.421-1.424-.004-.046-.006-.092-.006-.139v-8.862c0-.865.704-1.569 1.569-1.569h6.431z" fill="#dedede"/><path d="m5.427 19.994c.046.004.094.006.142.006h6.431-6.43c-.048 0-.096-.002-.143-.006zm6.573-11.994h-6.431c-.865 0-1.569.704-1.569 1.569v8.862c0 .047.002.093.006.139-.004-.046-.006-.093-.006-.14v-2l3.37-2.89c.33-.275.733-.412 1.134-.412s.801.137 1.126.412l2.19 1.81c.049.044.104.064.159.064.007 0 .014 0 .021-.001z" fill="#7db0d9"/><path d="m8.504 13.128c-.401 0-.804.137-1.134.412l-3.37 2.89v2c0 .047.002.094.006.14.066.756.665 1.356 1.421 1.424.047.004.095.006.143.006h6.43v-4.587c-.007.001-.014.001-.021.001-.055 0-.11-.02-.159-.064l-2.19-1.81c-.325-.275-.725-.412-1.126-.412z" fill="#79aa40"/></svg>