<svg height="512pt" viewBox="0 -48 512 511" width="512pt" xmlns="http://www.w3.org/2000/svg"><path d="m499.773438 248.238281h-63.320313c2.054687 4.730469 3.203125 9.945313 3.203125 15.429688 0 5.488281-1.144531 10.703125-3.203125 15.433593h63.320313c6.753906 0 12.226562-5.476562 12.226562-12.226562v-6.410156c0-6.753906-5.472656-12.226563-12.226562-12.226563zm0 0" fill="#dfebfa"/><path d="m83.351562 39.242188c0-5.484376 1.144532-10.699219 3.203126-15.429688h-74.328126c-6.753906 0-12.226562 5.472656-12.226562 12.226562v6.410157c0 6.753906 5.472656 12.226562 12.226562 12.226562h74.328126c-2.058594-4.730469-3.203126-9.945312-3.203126-15.433593zm0 0" fill="#ff656f"/><path d="m160.839844 151.457031c0-5.484375 1.144531-10.703125 3.199218-15.429687h-151.8125c-6.753906 0-12.226562 5.472656-12.226562 12.222656v6.410156c0 6.753906 5.472656 12.226563 12.226562 12.226563h151.8125c-2.054687-4.726563-3.199218-9.945313-3.199218-15.429688zm0 0" fill="#fee55a"/><path d="m368.347656 263.667969c0-5.484375 1.148438-10.699219 3.203125-15.429688h-359.324219c-6.753906 0-12.226562 5.472657-12.226562 12.226563v6.410156c0 6.753906 5.472656 12.226562 12.226562 12.226562h359.328126c-2.058594-4.730468-3.207032-9.945312-3.207032-15.433593zm0 0" fill="#43cb8e"/><path d="m160.839844 375.882812c0-5.488281 1.144531-10.703124 3.199218-15.433593h-151.8125c-6.753906 0-12.226562 5.476562-12.226562 12.226562v6.410157c0 6.753906 5.472656 12.226562 12.226562 12.226562h151.8125c-2.054687-4.726562-3.199218-9.945312-3.199218-15.429688zm0 0" fill="#60b8fe"/><path d="m30.90625 42.449219v-6.410157c0-6.753906 5.472656-12.226562 12.226562-12.226562h-30.90625c-6.753906 0-12.226562 5.472656-12.226562 12.226562v6.410157c0 6.753906 5.472656 12.226562 12.226562 12.226562h30.90625c-6.753906 0-12.226562-5.472656-12.226562-12.226562zm0 0" fill="#ff4756"/><path d="m30.90625 154.660156v-6.410156c0-6.75 5.472656-12.226562 12.226562-12.226562h-30.90625c-6.753906 0-12.226562 5.476562-12.226562 12.226562v6.410156c0 6.753906 5.472656 12.226563 12.226562 12.226563h30.90625c-6.753906 0-12.226562-5.472657-12.226562-12.226563zm0 0" fill="#ffd301"/><path d="m30.90625 266.875v-6.410156c0-6.753906 5.472656-12.226563 12.226562-12.226563h-30.90625c-6.753906 0-12.226562 5.472657-12.226562 12.226563v6.410156c0 6.753906 5.472656 12.226562 12.226562 12.226562h30.90625c-6.753906 0-12.226562-5.472656-12.226562-12.226562zm0 0" fill="#00ba66"/><path d="m30.90625 379.085938v-6.410157c0-6.75 5.472656-12.226562 12.226562-12.226562h-30.90625c-6.753906 0-12.226562 5.476562-12.226562 12.226562v6.410157c0 6.753906 5.472656 12.226562 12.226562 12.226562h30.90625c-6.753906 0-12.226562-5.472656-12.226562-12.226562zm0 0" fill="#23a8fe"/><g fill="#dfebfa"><path d="m499.773438 23.8125h-348.320313c2.054687 4.730469 3.203125 9.945312 3.203125 15.429688 0 5.488281-1.148438 10.703124-3.203125 15.433593h348.320313c6.753906 0 12.226562-5.476562 12.226562-12.226562v-6.410157c0-6.753906-5.472656-12.226562-12.226562-12.226562zm0 0"/><path d="m499.773438 136.027344h-270.832032c2.054688 4.726562 3.203125 9.945312 3.203125 15.429687s-1.148437 10.703125-3.203125 15.429688h270.832032c6.753906 0 12.226562-5.472657 12.226562-12.226563v-6.410156c0-6.75-5.472656-12.222656-12.226562-12.222656zm0 0"/><path d="m499.773438 360.449219h-270.832032c2.054688 4.730469 3.203125 9.945312 3.203125 15.433593 0 5.484376-1.148437 10.703126-3.203125 15.429688h270.832032c6.753906 0 12.226562-5.472656 12.226562-12.226562v-6.410157c0-6.75-5.472656-12.226562-12.226562-12.226562zm0 0"/></g><path d="m157.746094 39.242188c0 21.398437-17.34375 38.746093-38.742188 38.746093-21.398437 0-38.746094-17.347656-38.746094-38.746093 0-21.394532 17.347657-38.742188 38.746094-38.742188 21.398438 0 38.742188 17.347656 38.742188 38.742188zm0 0" fill="#ff656f"/><path d="m111.421875 39.242188c0-15.851563 9.527344-29.472657 23.164063-35.46875-4.769532-2.097657-10.039063-3.273438-15.582032-3.273438-21.398437 0-38.746094 17.347656-38.746094 38.746094 0 21.398437 17.347657 38.742187 38.746094 38.742187 5.542969 0 10.8125-1.171875 15.582032-3.269531-13.636719-6-23.164063-19.621094-23.164063-35.476562zm0 0" fill="#ff4756"/><path d="m235.234375 151.457031c0 21.398438-17.34375 38.742188-38.742187 38.742188-21.398438 0-38.746094-17.34375-38.746094-38.742188 0-21.398437 17.347656-38.742187 38.746094-38.742187 21.398437 0 38.742187 17.34375 38.742187 38.742187zm0 0" fill="#fee55a"/><path d="m188.910156 151.457031c0-15.851562 9.527344-29.472656 23.160156-35.472656-4.765624-2.097656-10.035156-3.269531-15.582031-3.269531-21.394531 0-38.742187 17.34375-38.742187 38.742187 0 21.398438 17.347656 38.746094 38.742187 38.746094 5.546875 0 10.8125-1.175781 15.582031-3.273437-13.632812-6-23.160156-19.621094-23.160156-35.472657zm0 0" fill="#ffd301"/><path d="m442.746094 263.667969c0 21.398437-17.34375 38.746093-38.742188 38.746093-21.398437 0-38.746094-17.347656-38.746094-38.746093 0-21.398438 17.347657-38.742188 38.746094-38.742188 21.398438 0 38.742188 17.34375 38.742188 38.742188zm0 0" fill="#43cb8e"/><path d="m396.421875 263.667969c0-15.851563 9.527344-29.472657 23.164063-35.472657-4.769532-2.097656-10.039063-3.269531-15.582032-3.269531-21.398437 0-38.746094 17.347657-38.746094 38.746094 0 21.394531 17.347657 38.742187 38.746094 38.742187 5.542969 0 10.808594-1.171874 15.582032-3.269531-13.636719-6-23.164063-19.621093-23.164063-35.476562zm0 0" fill="#00ba66"/><path d="m235.234375 375.882812c0 21.398438-17.34375 38.742188-38.742187 38.742188-21.398438 0-38.746094-17.34375-38.746094-38.742188 0-21.398437 17.347656-38.746093 38.746094-38.746093 21.398437 0 38.742187 17.347656 38.742187 38.746093zm0 0" fill="#60b8fe"/><path d="m188.910156 375.882812c0-15.855468 9.527344-29.476562 23.160156-35.472656-4.765624-2.097656-10.035156-3.269531-15.582031-3.269531-21.394531 0-38.742187 17.34375-38.742187 38.742187 0 21.398438 17.347656 38.746094 38.742187 38.746094 5.546875 0 10.8125-1.175781 15.582031-3.273437-13.632812-6-23.160156-19.621094-23.160156-35.472657zm0 0" fill="#23a8fe"/></svg>