<svg id="Layer_1" enable-background="new 0 0 511.898 511.898" height="512" viewBox="0 0 511.898 511.898" width="512" xmlns="http://www.w3.org/2000/svg"><g><path d="m496 159.949c0 30.928-17.072 56-48 56s-48-25.072-48-56 17.072-72 48-72 48 41.072 48 72z" fill="#f3d4b7"/><path d="m496 159.949c0 30.93-17.07 56-48 56-5.83 0-11.18-.89-16-2.55 48.942-16.785 35.663-102.342 0-121.41 4.82-2.58 10.17-4.04 16-4.04 30.93 0 48 41.07 48 72z" fill="#e1c3a7"/><circle cx="256" cy="287.949" fill="#e2e0e0" r="136"/><circle cx="256" cy="287.949" fill="#cecccc" r="64"/><path d="m392 287.949c0 83.05-73.747 146.65-156 134.54 65.63-9.67 116-66.23 116-134.54s-50.37-124.87-116-134.54c82.169-12.098 156 51.411 156 134.54z" fill="#cecccc"/><path d="m128 167.949v-80c0-8.836-7.164-16-16-16s-16 7.164-16 16v80c0 8.822-7.178 16-16 16v-96c0-8.836-7.164-16-16-16s-16 7.164-16 16v96c-8.822 0-16-7.178-16-16v-80c0-8.836-7.164-16-16-16s-16 7.164-16 16v80c0 26.467 21.533 48 48 48v192c0 8.836 7.164 16 16 16s16-7.164 16-16v-192c26.467 0 48-21.533 48-48z"/><path d="m448 71.949c-68.435 0-93.737 138.778-16 158.077v177.923c0 8.836 7.164 16 16 16s16-7.164 16-16v-177.924c77.764-19.305 52.428-158.076-16-158.076zm0 128c-51.557 0-32.408-96 0-96 32.44 0 51.528 96 0 96z"/><path d="m256 135.949c-83.813 0-152 68.187-152 152s68.187 152 152 152 152-68.187 152-152-68.187-152-152-152zm0 272c-66.168 0-120-53.832-120-120s53.832-120 120-120 120 53.832 120 120-53.832 120-120 120z"/><path d="m256 207.949c-44.112 0-80 35.888-80 80s35.888 80 80 80 80-35.888 80-80-35.888-80-80-80zm0 128c-26.467 0-48-21.533-48-48s21.533-48 48-48 48 21.533 48 48-21.533 48-48 48z"/></g></svg>