<svg height="420pt" viewBox="-49 0 420 420" width="420pt" xmlns="http://www.w3.org/2000/svg"><path d="m312.699219 117.898438v.203124h-68.097657c-22.09375.003907-40.007812-17.90625-40-40v-67.902343l1.699219 1.5zm0 0" fill="#f8ec7d"/><path d="m312.699219 118.101562v251.898438c.007812 22.09375-17.90625 40.007812-40 40h-222.597657c-22.09375.007812-40.007812-17.90625-40-40v-320c-.007812-22.09375 17.90625-40.007812 40-40h152.597657l2 .199219v67.902343c-.003907 22.09375 17.90625 40.003907 40 40zm0 0" fill="#e48e66"/><path d="m141.300781 11.5h-91.199219c-22.09375-.007812-40.007812 17.90625-40 40v318.699219c-.007812 22.09375 17.90625 40.007812 40 40h91.097657v-398.699219zm0 0" fill="#d18162"/><path d="m213.398438 4.601562c-.140626-.164062-.308594-.300781-.5-.402343l-1.699219-1.5c-1.5625-1.375-3.523438-2.21875-5.597657-2.398438l-2-.199219c-.300781 0-.703124-.101562-1-.101562h-152.601562c-27.609375.0117188-49.9882812 22.390625-50 50v320c.0117188 27.609375 22.390625 49.988281 50 50h222.699219c27.609375-.011719 49.992187-22.390625 50-50v-252.101562c-.019531-2.648438-1.058594-5.191407-2.898438-7.097657zm1.203124 29.5 74.199219 74h-44.199219c-16.550781-.050781-29.953124-13.453124-30-30zm88.097657 335.898438c-.046875 16.546875-13.449219 29.953125-30 30h-222.699219c-16.546875-.046875-29.953125-13.453125-30-30v-320c.046875-16.546875 13.453125-29.953125 30-30h144.601562v58.101562c.007813 27.609376 22.386719 49.988282 50 50h58.097657zm0 0" fill="#63316d"/></svg>