<?xml version="1.0" encoding="iso-8859-1"?>
<!-- Generator: Adobe Illustrator 19.0.0, SVG Export Plug-In . SVG Version: 6.00 Build 0)  -->
<svg version="1.1" id="Capa_1" xmlns="http://www.w3.org/2000/svg" xmlns:xlink="http://www.w3.org/1999/xlink" x="0px" y="0px"
	 viewBox="0 0 512 512" style="enable-background:new 0 0 512 512;" xml:space="preserve">
<path style="fill:#303C42;" d="M448,352c-20.827,0-64,11.598-85.885,17.885c-2.904-30.609-42.125-41.444-82.656-49.677
	c-18.5-3.75-32.271-10.385-45.583-16.813C217.458,295.479,201.958,288,181.333,288c-23.618,0-45.142,4.831-57.288,8.173
	c-3.211-11.172-12.32-20.177-24.421-22.59L12.75,256.208c-3.125-0.625-6.375,0.188-8.854,2.208C1.437,260.448,0,263.469,0,266.667
	v170.667C0,443.229,4.771,448,10.667,448H77.5c13.172,0,24.397-8.379,29.223-20.142c23.902,11.395,134.358,62.809,181.277,62.809
	c41.375,0,126.563-41.875,182.917-69.583c14.688-7.219,26.833-13.198,34.708-16.646c3.875-1.708,6.375-5.542,6.375-9.771
	C512,369.542,485.688,352,448,352z"/>
<path style="fill:#FFE082;" d="M461.5,401.938c-51.271,25.208-137.083,67.396-173.5,67.396c-38.792,0-140.688-45.427-176.667-62.927
	c-0.04-0.02-0.085-0.013-0.125-0.031l12.551-87.904c7.772-2.431,31.518-9.138,57.574-9.138c15.75,0,27.896,5.865,43.292,13.281
	c13.813,6.667,29.479,14.219,50.583,18.51c46.354,9.396,66.125,19.031,66.125,32.208c0,2.604-0.792,4.208-2.813,5.719
	c-6.792,5.073-33.271,13.594-132.813-15.948c-5.729-1.646-11.604,1.552-13.271,7.198c-1.667,5.646,1.542,11.583,7.188,13.26
	c49.146,14.563,86.708,21.823,113.333,21.823c17.354,0,30.083-3.083,38.313-9.24c0.708-0.529,3.203-1.74,3.875-1.948
	C374,388.396,427.438,373.333,448,373.333c17.396,0,35.708,5.281,41.083,15.208C481.646,392.042,472.25,396.667,461.5,401.938z"/>
<linearGradient id="SVGID_1_" gradientUnits="userSpaceOnUse" x1="-42.0636" y1="630.301" x2="-35.2021" y2="623.4425" gradientTransform="matrix(21.3333 0 0 -21.3333 996.3334 13791.667)">
	<stop  offset="0" style="stop-color:#000000;stop-opacity:0.1"/>
	<stop  offset="1" style="stop-color:#000000;stop-opacity:0"/>
</linearGradient>
<path style="fill:url(#SVGID_1_);" d="M123.428,320.784l-12.22,85.591c0.04,0.018,0.085,0.012,0.125,0.031
	c31.271,15.21,112.292,51.483,158.441,60.724L123.428,320.784z"/>
<path style="fill:#303C42;" d="M501.333,192h-11.207c-5.063-76.227-63.611-137.904-138.439-147.789
	c0.04-0.538,0.313-0.996,0.313-1.544c0-11.76-9.573-21.333-21.333-21.333c-11.76,0-21.333,9.573-21.333,21.333
	c0,0.548,0.272,1.007,0.313,1.544C234.818,54.096,176.27,115.773,171.207,192H160c-5.896,0-10.667,4.771-10.667,10.667v10.667
	C149.333,236.865,168.469,256,192,256h277.333C492.865,256,512,236.865,512,213.333v-10.667C512,196.771,507.229,192,501.333,192z"
	/>
<path style="fill:#F2F2F2;" d="M330.667,64c72.858,0,132.645,56.522,138.126,128H192.54C198.022,120.522,257.809,64,330.667,64z"/>
<path style="opacity:0.5;fill:#FFFFFF;enable-background:new    ;" d="M362.126,96c30.533,0,58.697,10.022,81.603,26.815
	C418.63,87.301,377.38,64,330.667,64c-72.858,0-132.645,56.522-138.126,128h37.928C248.507,136.393,300.582,96,362.126,96z"/>
<path style="fill:#F2F2F2;" d="M469.333,234.667H192c-11.76,0-21.333-9.573-21.333-21.333h320
	C490.667,225.094,481.094,234.667,469.333,234.667z"/>
<path style="opacity:0.1;enable-background:new    ;" d="M466.053,213.333C462.329,219.591,455.792,224,448,224H173.947
	c3.724,6.258,10.262,10.667,18.053,10.667h277.333c11.76,0,21.333-9.573,21.333-21.333H466.053z"/>
<path style="fill:#29B6F6;" d="M77.5,426.667H21.333v-146.99L95.458,294.5c5.542,1.115,9.271,6.365,8.458,11.969L88.063,417.51
	C87.313,422.729,82.771,426.667,77.5,426.667z"/>
<path style="opacity:0.1;enable-background:new    ;" d="M21.333,352v74.667H77.5c5.271,0,9.813-3.938,10.563-9.156L97.415,352
	H21.333z"/>
<linearGradient id="SVGID_2_" gradientUnits="userSpaceOnUse" x1="-44.7326" y1="638.3214" x2="-22.6356" y2="628.0183" gradientTransform="matrix(21.3333 0 0 -21.3333 996.3334 13791.667)">
	<stop  offset="0" style="stop-color:#FFFFFF;stop-opacity:0.2"/>
	<stop  offset="1" style="stop-color:#FFFFFF;stop-opacity:0"/>
</linearGradient>
<path style="fill:url(#SVGID_2_);" d="M448,352c-20.827,0-64,11.598-85.885,17.885c-2.904-30.609-42.125-41.444-82.656-49.677
	c-18.5-3.75-32.271-10.385-45.583-16.813C217.458,295.479,201.958,288,181.333,288c-23.618,0-45.142,4.831-57.288,8.173
	c-3.211-11.172-12.32-20.177-24.421-22.59L12.75,256.208c-3.125-0.625-6.375,0.188-8.854,2.208C1.437,260.448,0,263.469,0,266.667
	v170.667C0,443.229,4.771,448,10.667,448H77.5c13.172,0,24.397-8.379,29.223-20.142c23.902,11.395,134.358,62.809,181.277,62.809
	c41.375,0,126.563-41.875,182.917-69.583c14.688-7.219,26.833-13.198,34.708-16.646c3.875-1.708,6.375-5.542,6.375-9.771
	C512,369.542,485.688,352,448,352z M501.333,192h-11.207c-5.063-76.227-63.611-137.904-138.439-147.789
	c0.04-0.538,0.313-0.996,0.313-1.544c0-11.76-9.573-21.333-21.333-21.333c-11.76,0-21.333,9.573-21.333,21.333
	c0,0.548,0.272,1.007,0.313,1.544C234.818,54.096,176.27,115.773,171.207,192H160c-5.896,0-10.667,4.771-10.667,10.667v10.667
	C149.333,236.865,168.469,256,192,256h277.333C492.865,256,512,236.865,512,213.333v-10.667C512,196.771,507.229,192,501.333,192z"
	/>
<g>
</g>
<g>
</g>
<g>
</g>
<g>
</g>
<g>
</g>
<g>
</g>
<g>
</g>
<g>
</g>
<g>
</g>
<g>
</g>
<g>
</g>
<g>
</g>
<g>
</g>
<g>
</g>
<g>
</g>
</svg>
